<?xml version="1.0" encoding="utf-8"?>
<!-- Generator: Adobe Illustrator 24.0.1, SVG Export Plug-In . SVG Version: 6.00 Build 0)  -->
<svg version="1.1" id="图层_1" xmlns="http://www.w3.org/2000/svg" xmlns:xlink="http://www.w3.org/1999/xlink" x="0px" y="0px"
	 viewBox="0 0 277 70" style="enable-background:new 0 0 277 70;" xml:space="preserve">
<style type="text/css">
	.st0{fill:#231815;}
	.st1{fill:#D7000F;}
</style>
<g>
	<g>
		<g>
			<path class="st0" d="M47.3,46.5c-0.5,4.7-2.5,8.3-6.1,10.6l-1.1-0.9c3-2.2,4.7-5.4,5.1-9.6h-4.3V45h4.4c0-0.3,0-0.6,0-1v-2.7h2.1
				v2.7c0,0.3,0,0.7,0,1h6.8c0,2.6-0.1,4.9-0.2,6.8c-0.1,1.9-0.4,3.2-0.8,3.8c-0.4,0.6-1.2,1-2.3,1c-1.1,0.1-2.2,0-3.2-0.2l-0.2-1.6
				c1,0.2,1.9,0.3,2.7,0.2c0.7-0.1,1.1-0.3,1.3-0.8c0.2-0.5,0.4-1.5,0.5-3.1c0.1-1.2,0.1-2.8,0.1-4.7H47.3z M41.5,42.7l1.7-1.1
				c0.6,0.8,1.2,1.6,1.6,2.4l-1.2,0.7C43.1,44.1,42.4,43.4,41.5,42.7z M47.4,49.3l1.6-1.2c0.8,1.1,1.6,2.3,2.2,3.6L50,52.4
				C49.2,51.2,48.3,50.2,47.4,49.3z"/>
			<path class="st0" d="M63.1,50.9c1.1-1.8,1.6-3.8,1.6-6.1v-3.1h2.1v3.1c0,0.2,0,0.4,0,0.6c0.5,2.5,1.2,4.4,2.1,5.8
				c1,1.5,2.6,3,4.8,4.4l-1.1,1.2c-2.4-1.4-4.2-3.1-5.4-5c-0.5-0.7-0.9-1.5-1.2-2.4c-0.3,0.8-0.7,1.6-1.3,2.3c-1.4,2-3.3,3.6-5.6,5
				l-1-1.1C60.3,54.3,62,52.7,63.1,50.9z"/>
			<path class="st0" d="M84,53.4c-1.3,1.8-3.7,2.9-7.2,3.4l-0.6-1.4c3.1-0.5,5.2-1.5,6.1-3.2h-5.5v-1.4h6c0.1-0.3,0.1-0.7,0.1-1
				v-0.3h2.1v0.3c0,0.4,0,0.7-0.1,1h6.1v1.4h-5.5c0.8,0.8,1.5,1.4,2.3,1.8c1.1,0.6,2.4,1.1,3.9,1.5l-0.5,1.3c-1.6-0.3-3-0.7-4.2-1.3
				C86,55,85,54.3,84,53.4z M90.9,45.9H85V49h-2.1v-1.8c-1.6,1.1-3.4,2-5.5,2.6l-0.6-1.2c1.9-0.7,3.5-1.6,4.9-2.8h-4.5v-1.4h3.1
				c-0.6-0.5-1.2-1-2-1.5l1.5-1.2c0.7,0.7,1.3,1.4,1.8,2.2l-0.8,0.6h2.1v-3H85v3h2.1L86.4,44c0.6-0.6,1.2-1.3,1.7-2.2l1.6,1.3
				c-0.6,0.6-1.2,1.1-1.9,1.5h3V45.9z M85.4,47.6l1.2-1.5c1.7,0.8,3.3,1.7,4.6,2.6l-0.9,1.1C89.1,49.1,87.4,48.3,85.4,47.6z"/>
			<path class="st0" d="M94.4,56.2c1.1-2,2.1-4.1,2.8-6.4l1.8,1c-1.1,2.6-2.3,4.7-3.4,6.2L94.4,56.2z M97.9,48.8
				c-1-0.8-2.2-1.5-3.4-2l1.2-1.6c1.4,0.9,2.4,1.7,3.2,2.5L97.9,48.8z M98.2,45.1c-1-0.8-2-1.4-3.2-2l1.2-1.5
				c1.2,0.9,2.2,1.7,2.9,2.5L98.2,45.1z M99.2,42.8l1.8-0.9c0.6,1,1.1,2,1.6,3l-1.2,0.6C100.7,44.6,100,43.7,99.2,42.8z M99.6,56.8
				V45.8h3.7v-4.4h2.1v4.4h3.8v8.9c0,0.7-0.2,1.2-0.5,1.5c-0.4,0.3-0.9,0.4-1.7,0.4c-0.6,0-1.2,0-1.8-0.1l-0.3-1.6
				c0.6,0.1,1.1,0.1,1.6,0.1c0.3,0,0.5-0.1,0.6-0.2c0.1-0.1,0.2-0.3,0.2-0.5v-1.3h-5.6v3.7H99.6z M107.2,47.3h-5.6v1.5h5.6V47.3z
				 M107.2,50.2h-5.6v1.5h5.6V50.2z M107.6,41.9l1.8,0.9c-0.6,1-1.3,1.9-2.1,2.8L106,45C106.6,44.1,107.1,43.1,107.6,41.9z"/>
			<path class="st0" d="M113.3,56.8V42.3h5.2v1.4l-0.7,2.4c2-1.3,3.6-2.9,4.8-4.9l2.1,0.5c-0.1,0.2-0.3,0.4-0.4,0.6
				c1.3,1.6,2.7,2.9,4.2,3.9l-0.9,1.2c-0.5-0.3-1-0.6-1.4-0.9v0.9h-2.1v1.7h3.7v1.4h-3.7v4.7c0,0.6-0.2,1-0.5,1.2
				c-0.3,0.3-0.9,0.4-1.7,0.4c-0.6,0-1.1,0-1.7-0.1l-0.3-1.5c0.6,0.1,1,0.1,1.4,0.1c0.3,0,0.5-0.1,0.5-0.2c0.1-0.1,0.1-0.3,0.1-0.6
				v-4h-3.3v-1.4h3.3v-1.7h-2.1v-0.9c-0.4,0.3-0.9,0.6-1.3,0.8l-0.9-1l-0.3,1.1c0.9,1.9,1.3,3.5,1.1,4.6c-0.1,0.5-0.3,0.8-0.6,1
				c-0.3,0.2-0.6,0.3-1,0.4c-0.4,0-0.8,0-1.3-0.1l-0.4-1.4c0.3,0.1,0.5,0.1,0.7,0.1c0.2,0,0.4,0,0.5-0.1c0.1-0.1,0.2-0.2,0.2-0.4
				c0.1-0.8-0.2-2.1-0.8-4l0.7-3.9h-1.4v13.1H113.3z M117.5,54.6c0.9-1.1,1.6-2.3,2.2-3.6l1.6,0.9c-0.8,1.3-1.6,2.4-2.6,3.5
				L117.5,54.6z M120.6,46.1h4.9c-0.9-0.7-1.7-1.4-2.4-2.2C122.3,44.7,121.5,45.4,120.6,46.1z M124.7,51.9l1.7-1
				c0.8,1.3,1.4,2.7,2,4.1l-1.3,0.7C126.4,54.3,125.6,53,124.7,51.9z"/>
			<path class="st0" d="M145.8,44.7h-10.5v4.2c0,3-1,5.7-2.9,8.1l-1.1-0.9c1-1.4,1.6-3.1,1.9-5c-0.6,0.6-1.3,1.1-2,1.5l-0.7-1.7
				c1-0.5,1.9-1,2.8-1.6c0-0.1,0-0.3,0-0.4v-5.6h5.5c-0.2-0.5-0.5-1.1-0.9-1.6l2.1-0.4c0.2,0.7,0.3,1.4,0.4,2.1h5.3V44.7z
				 M130.8,44.8l1.6-0.6c0.3,1.5,0.5,2.7,0.6,3.8l-1.1,0.4C131.6,47.1,131.2,45.9,130.8,44.8z M138.8,46.6h6.4V48h-3.3v1
				c0,0.5,0,0.9-0.1,1.3h4.2v1.4H142c0.5,0.8,1,1.5,1.6,2c0.8,0.7,1.8,1.3,2.9,1.9l-0.8,1.1c-1.3-0.5-2.3-1.1-3.2-1.8
				c-0.6-0.5-1.2-1.1-1.8-1.9c-1,1.6-2.7,2.8-5.1,3.7l-0.8-1.1c2.3-1,3.8-2.3,4.5-4h-3.7v-1.4h4.1c0.1-0.4,0.1-0.8,0.1-1.3v-1h-1.7
				c-0.4,0.7-0.9,1.4-1.5,2.1l-1.1-0.8c0.9-1.3,1.4-2.8,1.6-4.3l2,0.3C139.1,45.8,139,46.2,138.8,46.6z"/>
			<path class="st0" d="M164.5,44.5h-11.1v4.3c0,3-1,5.7-2.9,8.1l-1.1-0.9c1-1.4,1.6-3.1,1.9-4.9c-0.6,0.5-1.2,1-1.8,1.4l-0.7-1.8
				c0.9-0.4,1.8-0.9,2.6-1.4c0-0.2,0-0.3,0-0.5v-5.7h5.9c-0.2-0.5-0.5-1-0.8-1.5l2-0.5c0.2,0.7,0.3,1.3,0.4,2h5.5V44.5z M149,44.7
				l1.6-0.6c0.3,1.5,0.5,2.8,0.6,3.9l-1.1,0.4C149.8,47.1,149.4,45.8,149,44.7z M154.3,56.8v-8h4c0-0.2,0-0.3,0-0.5v-1h-4.4v-1.4
				h10.5v1.4h-4.2v1c0,0.2,0,0.3,0,0.5h3.8v6.2c0,0.7-0.2,1.1-0.5,1.4c-0.3,0.3-0.9,0.4-1.7,0.4c-0.5,0-1.1-0.1-1.7-0.2l-0.2-1.5
				c0.5,0.1,0.9,0.1,1.3,0.1c0.3,0,0.5-0.1,0.6-0.2c0.1-0.1,0.2-0.3,0.2-0.5v-0.9l-0.8,0.9c-0.6-0.8-1.3-1.6-2.1-2.3
				c-0.5,0.9-1.3,1.7-2.3,2.4l-0.7-0.8v3H154.3z M156.2,50.1v3.3c0.9-0.9,1.5-2,1.8-3.3H156.2z M160,50.1c0,0.1-0.1,0.2-0.1,0.3
				c0.8,1,1.5,1.9,2.1,2.9v-3.2H160z"/>
			<path class="st0" d="M172.4,49h9.9v1.4h-3.8v1.5h3.5v1.4h-3.5v1.7c0.4,0,0.9,0,1.5,0c1,0,2-0.1,2.9-0.2l-0.3,1.6
				c-0.7,0.1-1.6,0.1-2.4,0.1c-1.1,0-2,0-2.7-0.1c-1-0.1-1.8-0.4-2.4-1c-0.3-0.2-0.5-0.5-0.8-0.8c-0.5,0.8-1,1.5-1.8,2.2l-1.2-0.8
				c1.3-1.5,2-3.3,2.1-5.2l2,0.3c-0.1,0.7-0.2,1.3-0.4,2c0.3,0.4,0.6,0.8,0.9,1c0.2,0.2,0.5,0.4,0.8,0.5v-4.2h-4.2v-1.1
				c-0.4,0.2-0.8,0.5-1.3,0.7v5.1c0,0.6-0.2,1-0.5,1.2c-0.3,0.2-0.8,0.4-1.4,0.4c-0.4,0-0.8,0-1.2-0.1l-0.3-1.6
				c0.4,0.1,0.7,0.1,1,0.1c0.2,0,0.3,0,0.4-0.1c0.1-0.1,0.1-0.2,0.1-0.3V51c-0.4,0.2-0.8,0.4-1.2,0.6l-0.7-1.9
				c0.7-0.2,1.3-0.4,1.9-0.6v-3.4h-1.5v-1.4h1.5v-2.7h2v2.7h1.4v1.4H171v2.8c0.5-0.2,0.9-0.3,1.4-0.5L172.4,49z M181.5,42.2v5.9
				h-8.4v-5.9H181.5z M175,44.5h4.5v-1H175V44.5z M179.5,45.8H175v0.9h4.5V45.8z"/>
			<path class="st0" d="M185.2,48.9c1.4-2.3,2.5-4.8,3.2-7.7l2.1,0.4c-0.4,1.1-0.8,2.1-1.3,3.1v12.1h-2v-8.3
				c-0.4,0.7-0.8,1.3-1.3,1.9L185.2,48.9z M193,52.5l1.5,1.4c-1.3,1.3-2.6,2.3-4.1,3.1l-1-1.1C190.7,55.1,191.9,53.9,193,52.5z
				 M198.6,46.4v4.4h2.4v1.4h-11.3v-1.4h2.1v-4.4H190V45h1.8v-3.4h2V45h2.8v-3.4h2V45h1.9v1.4H198.6z M193.8,46.4v4.4h2.8v-4.4
				H193.8z M195.9,53.9l1.5-1.4c1.4,1.1,2.6,2.3,3.7,3.5l-1.1,1C198.9,55.9,197.5,54.9,195.9,53.9z"/>
			<path class="st0" d="M218.8,44.4H208v4.7c0,2.9-1.1,5.6-3.3,7.9l-1-0.9c1.3-1.5,2.1-3.3,2.3-5.4c-0.6,0.5-1.3,1-2,1.4l-0.6-1.8
				c0.9-0.4,1.9-0.9,2.7-1.4v-5.9h5.8c-0.2-0.4-0.4-0.9-0.7-1.3l2.1-0.4c0.1,0.6,0.2,1.1,0.3,1.7h5.3V44.4z M203.6,44.7l1.5-0.6
				c0.3,1.4,0.6,2.6,0.7,3.7l-1.1,0.5C204.4,47,204,45.8,203.6,44.7z M208.4,49.9h9.3v1.4c-0.8,1.1-1.7,2.1-2.6,2.8
				c1.2,0.5,2.7,0.9,4.3,1.2l-0.6,1.3c-2-0.3-3.8-0.8-5.3-1.5c-0.1,0-0.1,0.1-0.2,0.1c-1.7,0.8-3.5,1.3-5.4,1.4l-0.6-1.2
				c1.7-0.2,3.3-0.6,4.6-1.2c-1-0.7-1.8-1.4-2.5-2.3l1.3-0.5h-2.1V49.9z M216.6,45.1v2.2c0,0.3,0.2,0.5,0.5,0.5c0.5,0,1,0,1.7-0.1
				l-0.2,1.3c-0.9,0.2-1.8,0.2-2.7,0.2c-0.4,0-0.7-0.1-0.9-0.3c-0.2-0.2-0.3-0.4-0.3-0.8v-1.6h-3.1v0.3c0,0.7-0.2,1.3-0.7,1.8
				c-0.5,0.5-1.2,0.9-2,1.2l-0.7-1c0.4-0.2,0.7-0.5,1-0.9c0.3-0.4,0.4-0.8,0.4-1.2v-1.5H216.6z M215.3,51.3h-4.2
				c0.6,0.7,1.3,1.4,2.2,1.9C214.1,52.7,214.8,52.1,215.3,51.3z"/>
			<path class="st0" d="M236.9,44.6h-3.6v1.5h-2v-1.5h-3.5v1.5h-2v-1.5h-3.6v-1.4h3.6v-1.6h2v1.6h3.5v-1.6h2v1.6h3.6V44.6z
				 M223.2,46.6h12.6v10.3h-2.1v-1.1h-8.5v1h-2.1V46.6z M225.3,50.5h3.3V48h-3.3V50.5z M228.5,51.8h-3.3v2.6h3.3V51.8z M230.5,50.5
				h3.3V48h-3.3V50.5z M233.8,51.8h-3.3v2.6h3.3V51.8z"/>
		</g>
		<g>
			<path class="st0" d="M44.8,65.8c0-0.3-0.1-0.5-0.3-0.7c-0.2-0.2-0.6-0.4-1.2-0.5c-0.7-0.2-1.2-0.4-1.6-0.7s-0.6-0.7-0.6-1.2
				c0-0.5,0.2-0.9,0.6-1.3c0.4-0.3,0.9-0.5,1.6-0.5c0.7,0,1.3,0.2,1.7,0.6c0.4,0.4,0.6,0.8,0.6,1.3l0,0h-0.9c0-0.4-0.1-0.7-0.4-0.9
				c-0.3-0.2-0.6-0.4-1-0.4c-0.4,0-0.8,0.1-1,0.3c-0.2,0.2-0.3,0.5-0.3,0.8c0,0.3,0.1,0.5,0.4,0.7c0.2,0.2,0.7,0.4,1.2,0.5
				c0.7,0.2,1.2,0.4,1.5,0.7c0.4,0.3,0.5,0.7,0.5,1.2c0,0.5-0.2,0.9-0.6,1.2c-0.4,0.3-1,0.5-1.7,0.5c-0.6,0-1.2-0.2-1.7-0.5
				c-0.5-0.3-0.7-0.8-0.7-1.4l0,0h0.9c0,0.4,0.2,0.7,0.5,0.9c0.3,0.2,0.7,0.3,1.1,0.3c0.4,0,0.8-0.1,1-0.3
				C44.7,66.3,44.8,66.1,44.8,65.8z"/>
			<path class="st0" d="M50,66.7c-0.2,0.3-0.4,0.5-0.6,0.6c-0.2,0.1-0.5,0.2-0.9,0.2c-0.5,0-1-0.2-1.3-0.5c-0.3-0.3-0.5-0.8-0.5-1.6
				v-2.8h0.9v2.8c0,0.5,0.1,0.9,0.2,1c0.2,0.2,0.4,0.3,0.7,0.3c0.3,0,0.6-0.1,0.8-0.2c0.2-0.1,0.4-0.3,0.5-0.5v-3.4h0.9v4.8h-0.8
				L50,66.7z"/>
			<path class="st0" d="M56.5,65.2c0,0.7-0.2,1.2-0.5,1.7c-0.3,0.4-0.8,0.6-1.4,0.6c-0.3,0-0.6,0-0.8-0.1c-0.2-0.1-0.4-0.2-0.6-0.4
				v2.3h-0.9v-6.6H53l0.1,0.6c0.2-0.2,0.4-0.4,0.6-0.5c0.2-0.1,0.5-0.2,0.9-0.2c0.6,0,1.1,0.2,1.4,0.7
				C56.3,63.7,56.5,64.3,56.5,65.2L56.5,65.2z M55.6,65.1c0-0.5-0.1-1-0.3-1.3c-0.2-0.3-0.6-0.5-1-0.5c-0.3,0-0.5,0.1-0.7,0.2
				c-0.2,0.1-0.3,0.3-0.4,0.5v2.3c0.1,0.2,0.3,0.4,0.4,0.5c0.2,0.1,0.4,0.2,0.7,0.2c0.4,0,0.8-0.2,1-0.5
				C55.5,66,55.6,65.6,55.6,65.1L55.6,65.1z"/>
			<path class="st0" d="M61.9,65.2c0,0.7-0.2,1.2-0.5,1.7c-0.3,0.4-0.8,0.6-1.4,0.6c-0.3,0-0.6,0-0.8-0.1c-0.2-0.1-0.4-0.2-0.6-0.4
				v2.3h-0.9v-6.6h0.7l0.1,0.6c0.2-0.2,0.4-0.4,0.6-0.5c0.2-0.1,0.5-0.2,0.9-0.2c0.6,0,1.1,0.2,1.4,0.7
				C61.7,63.7,61.9,64.3,61.9,65.2L61.9,65.2z M61,65.1c0-0.5-0.1-1-0.3-1.3c-0.2-0.3-0.6-0.5-1-0.5c-0.3,0-0.5,0.1-0.7,0.2
				c-0.2,0.1-0.3,0.3-0.4,0.5v2.3c0.1,0.2,0.3,0.4,0.4,0.5c0.2,0.1,0.4,0.2,0.7,0.2c0.4,0,0.8-0.2,1-0.5C60.9,66,61,65.6,61,65.1
				L61,65.1z"/>
			<path class="st0" d="M64,67.4h-0.9v-6.9H64V67.4z"/>
			<path class="st0" d="M66.9,65.6l0.2,0.6h0l1.2-3.6h1l-2.1,5.5c-0.1,0.3-0.3,0.6-0.5,0.8c-0.2,0.2-0.6,0.4-1,0.4
				c-0.1,0-0.2,0-0.3,0c-0.1,0-0.2,0-0.3,0l0.1-0.7c0,0,0,0,0.2,0c0.1,0,0.2,0,0.2,0c0.2,0,0.4-0.1,0.5-0.2c0.1-0.2,0.2-0.3,0.3-0.5
				l0.2-0.5l-1.9-4.7h1L66.9,65.6z"/>
			<path class="st0" d="M74.7,65.7l0.2,0.5h0l0.2-0.5l1.7-4.7h1l-2.5,6.4h-0.8L71.9,61h1L74.7,65.7z"/>
			<path class="st0" d="M81.3,67.4c0-0.1-0.1-0.3-0.1-0.4c0-0.1,0-0.2,0-0.3c-0.2,0.2-0.4,0.4-0.7,0.6c-0.3,0.2-0.6,0.2-0.9,0.2
				c-0.5,0-0.9-0.1-1.2-0.4c-0.3-0.3-0.4-0.6-0.4-1.1c0-0.5,0.2-0.8,0.6-1.1c0.4-0.3,0.9-0.4,1.6-0.4h1v-0.5c0-0.3-0.1-0.5-0.3-0.7
				c-0.2-0.2-0.4-0.2-0.8-0.2c-0.3,0-0.5,0.1-0.7,0.2c-0.2,0.1-0.3,0.3-0.3,0.5l-0.9,0l0,0c0-0.3,0.1-0.7,0.5-1
				c0.4-0.3,0.8-0.4,1.4-0.4c0.6,0,1,0.1,1.4,0.4c0.3,0.3,0.5,0.7,0.5,1.2v2.3c0,0.2,0,0.3,0,0.5c0,0.2,0.1,0.3,0.1,0.5H81.3z
				 M79.8,66.7c0.3,0,0.6-0.1,0.9-0.2c0.3-0.2,0.4-0.3,0.5-0.6v-0.8h-1c-0.4,0-0.7,0.1-0.9,0.3c-0.2,0.2-0.3,0.4-0.3,0.6
				c0,0.2,0.1,0.4,0.2,0.5C79.4,66.7,79.6,66.7,79.8,66.7z"/>
			<path class="st0" d="M85.5,66.8c0.3,0,0.5-0.1,0.7-0.3c0.2-0.2,0.3-0.4,0.3-0.7h0.8l0,0c0,0.4-0.2,0.8-0.6,1.1
				c-0.4,0.3-0.8,0.5-1.3,0.5c-0.7,0-1.2-0.2-1.6-0.7c-0.4-0.5-0.6-1-0.6-1.7v-0.2c0-0.7,0.2-1.2,0.6-1.7s0.9-0.7,1.6-0.7
				c0.6,0,1,0.2,1.4,0.5c0.4,0.3,0.5,0.7,0.5,1.2l0,0h-0.8c0-0.3-0.1-0.5-0.3-0.7c-0.2-0.2-0.4-0.3-0.8-0.3c-0.4,0-0.8,0.2-1,0.5
				c-0.2,0.3-0.3,0.7-0.3,1.2v0.2c0,0.5,0.1,0.9,0.3,1.2C84.7,66.6,85,66.8,85.5,66.8z"/>
			<path class="st0" d="M90.4,66.8c0.3,0,0.5-0.1,0.7-0.3c0.2-0.2,0.3-0.4,0.3-0.7h0.8l0,0c0,0.4-0.2,0.8-0.6,1.1
				c-0.4,0.3-0.8,0.5-1.3,0.5c-0.7,0-1.2-0.2-1.6-0.7c-0.4-0.5-0.6-1-0.6-1.7v-0.2c0-0.7,0.2-1.2,0.6-1.7s0.9-0.7,1.6-0.7
				c0.6,0,1,0.2,1.4,0.5c0.4,0.3,0.5,0.7,0.5,1.2l0,0h-0.8c0-0.3-0.1-0.5-0.3-0.7c-0.2-0.2-0.4-0.3-0.8-0.3c-0.4,0-0.8,0.2-1,0.5
				c-0.2,0.3-0.3,0.7-0.3,1.2v0.2c0,0.5,0.1,0.9,0.3,1.2C89.6,66.6,90,66.8,90.4,66.8z"/>
			<path class="st0" d="M94.4,61.4h-0.9v-0.9h0.9V61.4z M94.4,67.4h-0.9v-4.8h0.9V67.4z"/>
			<path class="st0" d="M96.6,62.6l0.1,0.7c0.2-0.3,0.4-0.4,0.6-0.6c0.3-0.1,0.5-0.2,0.9-0.2c0.5,0,1,0.2,1.3,0.5
				c0.3,0.3,0.4,0.8,0.4,1.4v3h-0.9v-3c0-0.4-0.1-0.7-0.3-0.9c-0.2-0.2-0.4-0.3-0.8-0.3c-0.3,0-0.5,0.1-0.7,0.2
				c-0.2,0.1-0.4,0.3-0.5,0.5v3.5h-0.9v-4.8H96.6z"/>
			<path class="st0" d="M103.2,67.5c-0.7,0-1.3-0.2-1.7-0.7c-0.4-0.4-0.6-1-0.6-1.7v-0.2c0-0.7,0.2-1.3,0.6-1.7
				c0.4-0.4,0.9-0.7,1.5-0.7c0.7,0,1.2,0.2,1.5,0.6c0.3,0.4,0.5,0.9,0.5,1.6v0.5h-3.2l0,0c0,0.5,0.1,0.9,0.3,1.2
				c0.2,0.3,0.6,0.4,1,0.4c0.3,0,0.6,0,0.8-0.1c0.2-0.1,0.4-0.2,0.6-0.3l0.4,0.6c-0.2,0.2-0.4,0.3-0.7,0.4
				C104,67.4,103.6,67.5,103.2,67.5z M103.1,63.2c-0.3,0-0.6,0.1-0.8,0.4c-0.2,0.2-0.3,0.5-0.4,0.9l0,0h2.3v-0.1
				c0-0.3-0.1-0.6-0.3-0.9C103.7,63.3,103.4,63.2,103.1,63.2z"/>
			<path class="st0" d="M109,66.1c0-0.2-0.1-0.3-0.2-0.5c-0.2-0.1-0.4-0.2-0.9-0.3c-0.6-0.1-1-0.3-1.4-0.5c-0.3-0.2-0.5-0.5-0.5-0.9
				c0-0.4,0.2-0.7,0.5-1c0.3-0.3,0.8-0.4,1.3-0.4c0.6,0,1,0.1,1.4,0.4c0.4,0.3,0.5,0.6,0.5,1l0,0h-0.9c0-0.2-0.1-0.4-0.3-0.6
				s-0.4-0.3-0.7-0.3c-0.3,0-0.6,0.1-0.7,0.2c-0.2,0.1-0.2,0.3-0.2,0.5c0,0.2,0.1,0.3,0.2,0.4c0.1,0.1,0.4,0.2,0.8,0.3
				c0.6,0.1,1.1,0.3,1.4,0.5c0.3,0.2,0.5,0.5,0.5,0.9c0,0.4-0.2,0.8-0.5,1c-0.4,0.3-0.8,0.4-1.4,0.4c-0.6,0-1.1-0.2-1.5-0.5
				c-0.4-0.3-0.5-0.7-0.5-1.1l0,0h0.9c0,0.3,0.1,0.5,0.4,0.7c0.2,0.1,0.5,0.2,0.8,0.2c0.3,0,0.6-0.1,0.8-0.2
				C108.9,66.5,109,66.3,109,66.1z"/>
			<path class="st0" d="M114.7,61.5v1.1h0.9v0.6h-0.9v2.9c0,0.2,0,0.4,0.1,0.5c0.1,0.1,0.2,0.1,0.4,0.1c0.1,0,0.1,0,0.2,0
				c0.1,0,0.1,0,0.2,0l0.1,0.6c-0.1,0.1-0.2,0.1-0.3,0.1c-0.1,0-0.3,0.1-0.4,0.1c-0.4,0-0.7-0.1-0.9-0.3c-0.2-0.2-0.3-0.5-0.3-1
				v-2.9H113v-0.6h0.8v-1.1H114.7z"/>
			<path class="st0" d="M116.4,64.9c0-0.7,0.2-1.3,0.6-1.7c0.4-0.5,0.9-0.7,1.6-0.7c0.7,0,1.2,0.2,1.6,0.7c0.4,0.5,0.6,1,0.6,1.7V65
				c0,0.7-0.2,1.3-0.6,1.7c-0.4,0.5-0.9,0.7-1.6,0.7c-0.7,0-1.2-0.2-1.6-0.7C116.6,66.3,116.4,65.8,116.4,64.9L116.4,64.9z
				 M117.3,65c0,0.5,0.1,0.9,0.3,1.3c0.2,0.3,0.6,0.5,1,0.5c0.4,0,0.8-0.2,1-0.5c0.2-0.3,0.3-0.7,0.3-1.3v-0.1
				c0-0.5-0.1-0.9-0.3-1.2c-0.2-0.3-0.6-0.5-1-0.5c-0.4,0-0.8,0.2-1,0.5C117.4,64,117.3,64.4,117.3,65L117.3,65z"/>
			<path class="st0" d="M128.1,64.4h-2.8v2.3h3.2v0.7h-4.1V61h4.1v0.7h-3.2v2.1h2.8V64.4z"/>
			<path class="st0" d="M130.5,67.4h-0.9v-6.9h0.9V67.4z"/>
			<path class="st0" d="M132.9,61.4H132v-0.9h0.9V61.4z M132.9,67.4H132v-4.8h0.9V67.4z"/>
			<path class="st0" d="M135.1,62.6l0.1,0.6c0.2-0.2,0.4-0.4,0.6-0.5c0.3-0.1,0.5-0.2,0.9-0.2s0.6,0.1,0.9,0.2
				c0.2,0.1,0.4,0.4,0.5,0.7c0.2-0.3,0.4-0.5,0.6-0.6c0.3-0.2,0.6-0.2,0.9-0.2c0.5,0,0.9,0.2,1.2,0.5c0.3,0.3,0.4,0.8,0.4,1.5v2.9
				h-0.9v-2.9c0-0.5-0.1-0.8-0.3-1c-0.2-0.2-0.4-0.3-0.8-0.3c-0.3,0-0.6,0.1-0.8,0.3c-0.2,0.2-0.3,0.5-0.3,0.8v0v3h-0.9v-2.9
				c0-0.4-0.1-0.8-0.3-1c-0.2-0.2-0.4-0.3-0.8-0.3c-0.3,0-0.5,0.1-0.7,0.2c-0.2,0.1-0.3,0.3-0.4,0.5v3.5h-0.9v-4.8H135.1z"/>
			<path class="st0" d="M143.6,61.4h-0.9v-0.9h0.9V61.4z M143.6,67.4h-0.9v-4.8h0.9V67.4z"/>
			<path class="st0" d="M145.8,62.6l0.1,0.7c0.2-0.3,0.4-0.4,0.6-0.6c0.3-0.1,0.5-0.2,0.9-0.2c0.5,0,1,0.2,1.3,0.5
				c0.3,0.3,0.4,0.8,0.4,1.4v3h-0.9v-3c0-0.4-0.1-0.7-0.3-0.9c-0.2-0.2-0.4-0.3-0.8-0.3c-0.3,0-0.5,0.1-0.7,0.2
				c-0.2,0.1-0.4,0.3-0.5,0.5v3.5H145v-4.8H145.8z"/>
			<path class="st0" d="M153.4,67.4c0-0.1-0.1-0.3-0.1-0.4c0-0.1,0-0.2,0-0.3c-0.2,0.2-0.4,0.4-0.7,0.6c-0.3,0.2-0.6,0.2-0.9,0.2
				c-0.5,0-0.9-0.1-1.2-0.4c-0.3-0.3-0.4-0.6-0.4-1.1c0-0.5,0.2-0.8,0.6-1.1c0.4-0.3,0.9-0.4,1.6-0.4h1v-0.5c0-0.3-0.1-0.5-0.3-0.7
				c-0.2-0.2-0.4-0.2-0.8-0.2c-0.3,0-0.5,0.1-0.7,0.2c-0.2,0.1-0.3,0.3-0.3,0.5l-0.9,0l0,0c0-0.3,0.1-0.7,0.5-1
				c0.4-0.3,0.8-0.4,1.4-0.4c0.6,0,1,0.1,1.4,0.4c0.3,0.3,0.5,0.7,0.5,1.2v2.3c0,0.2,0,0.3,0,0.5c0,0.2,0.1,0.3,0.1,0.5H153.4z
				 M151.9,66.7c0.3,0,0.6-0.1,0.9-0.2c0.3-0.2,0.4-0.3,0.5-0.6v-0.8h-1c-0.4,0-0.7,0.1-0.9,0.3c-0.2,0.2-0.3,0.4-0.3,0.6
				c0,0.2,0.1,0.4,0.2,0.5C151.4,66.7,151.6,66.7,151.9,66.7z"/>
			<path class="st0" d="M156.8,61.5v1.1h0.9v0.6h-0.9v2.9c0,0.2,0,0.4,0.1,0.5c0.1,0.1,0.2,0.1,0.4,0.1c0.1,0,0.1,0,0.2,0
				c0.1,0,0.1,0,0.2,0l0.1,0.6c-0.1,0.1-0.2,0.1-0.3,0.1c-0.1,0-0.3,0.1-0.4,0.1c-0.4,0-0.7-0.1-0.9-0.3c-0.2-0.2-0.3-0.5-0.3-1
				v-2.9h-0.8v-0.6h0.8v-1.1H156.8z"/>
			<path class="st0" d="M160.8,67.5c-0.7,0-1.3-0.2-1.7-0.7c-0.4-0.4-0.6-1-0.6-1.7v-0.2c0-0.7,0.2-1.3,0.6-1.7
				c0.4-0.4,0.9-0.7,1.5-0.7c0.7,0,1.2,0.2,1.5,0.6c0.3,0.4,0.5,0.9,0.5,1.6v0.5h-3.2l0,0c0,0.5,0.1,0.9,0.3,1.2
				c0.2,0.3,0.6,0.4,1,0.4c0.3,0,0.6,0,0.8-0.1c0.2-0.1,0.4-0.2,0.6-0.3l0.4,0.6c-0.2,0.2-0.4,0.3-0.7,0.4
				C161.6,67.4,161.2,67.5,160.8,67.5z M160.7,63.2c-0.3,0-0.6,0.1-0.8,0.4c-0.2,0.2-0.3,0.5-0.4,0.9l0,0h2.3v-0.1
				c0-0.3-0.1-0.6-0.3-0.9C161.3,63.3,161,63.2,160.7,63.2z"/>
			<path class="st0" d="M171.2,67.4h-0.9v-2.8h-3.3v2.8h-0.9V61h0.9v2.9h3.3V61h0.9V67.4z"/>
			<path class="st0" d="M175.9,66.7c-0.2,0.3-0.4,0.5-0.6,0.6c-0.2,0.1-0.5,0.2-0.9,0.2c-0.5,0-1-0.2-1.3-0.5
				c-0.3-0.3-0.5-0.8-0.5-1.6v-2.8h0.9v2.8c0,0.5,0.1,0.9,0.2,1c0.2,0.2,0.4,0.3,0.7,0.3c0.3,0,0.6-0.1,0.8-0.2
				c0.2-0.1,0.4-0.3,0.5-0.5v-3.4h0.9v4.8h-0.8L175.9,66.7z"/>
			<path class="st0" d="M178.9,62.6l0.1,0.6c0.2-0.2,0.4-0.4,0.6-0.5c0.3-0.1,0.5-0.2,0.9-0.2s0.6,0.1,0.9,0.2
				c0.2,0.1,0.4,0.4,0.5,0.7c0.2-0.3,0.4-0.5,0.6-0.6c0.3-0.2,0.6-0.2,0.9-0.2c0.5,0,0.9,0.2,1.2,0.5c0.3,0.3,0.4,0.8,0.4,1.5v2.9
				h-0.9v-2.9c0-0.5-0.1-0.8-0.3-1c-0.2-0.2-0.4-0.3-0.8-0.3c-0.3,0-0.6,0.1-0.8,0.3c-0.2,0.2-0.3,0.5-0.3,0.8v0v3h-0.9v-2.9
				c0-0.4-0.1-0.8-0.3-1c-0.2-0.2-0.4-0.3-0.8-0.3c-0.3,0-0.5,0.1-0.7,0.2c-0.2,0.1-0.3,0.3-0.4,0.5v3.5h-0.9v-4.8H178.9z"/>
			<path class="st0" d="M189.4,67.4c0-0.1-0.1-0.3-0.1-0.4c0-0.1,0-0.2,0-0.3c-0.2,0.2-0.4,0.4-0.7,0.6c-0.3,0.2-0.6,0.2-0.9,0.2
				c-0.5,0-0.9-0.1-1.2-0.4c-0.3-0.3-0.4-0.6-0.4-1.1c0-0.5,0.2-0.8,0.6-1.1c0.4-0.3,0.9-0.4,1.6-0.4h1v-0.5c0-0.3-0.1-0.5-0.3-0.7
				c-0.2-0.2-0.4-0.2-0.8-0.2c-0.3,0-0.5,0.1-0.7,0.2c-0.2,0.1-0.3,0.3-0.3,0.5l-0.9,0l0,0c0-0.3,0.1-0.7,0.5-1
				c0.4-0.3,0.8-0.4,1.4-0.4c0.6,0,1,0.1,1.4,0.4c0.3,0.3,0.5,0.7,0.5,1.2v2.3c0,0.2,0,0.3,0,0.5c0,0.2,0.1,0.3,0.1,0.5H189.4z
				 M187.9,66.7c0.3,0,0.6-0.1,0.9-0.2c0.3-0.2,0.4-0.3,0.5-0.6v-0.8h-1c-0.4,0-0.7,0.1-0.9,0.3c-0.2,0.2-0.3,0.4-0.3,0.6
				c0,0.2,0.1,0.4,0.2,0.5C187.4,66.7,187.6,66.7,187.9,66.7z"/>
			<path class="st0" d="M192.3,62.6l0.1,0.7c0.2-0.3,0.4-0.4,0.6-0.6c0.3-0.1,0.5-0.2,0.9-0.2c0.5,0,1,0.2,1.3,0.5
				c0.3,0.3,0.4,0.8,0.4,1.4v3h-0.9v-3c0-0.4-0.1-0.7-0.3-0.9c-0.2-0.2-0.4-0.3-0.8-0.3c-0.3,0-0.5,0.1-0.7,0.2
				c-0.2,0.1-0.4,0.3-0.5,0.5v3.5h-0.9v-4.8H192.3z"/>
			<path class="st0" d="M199.4,67.4V61h2.1c0.9,0,1.6,0.3,2.1,0.8c0.5,0.5,0.8,1.2,0.8,2v0.9c0,0.8-0.3,1.5-0.8,2
				c-0.5,0.5-1.2,0.8-2.1,0.8H199.4z M200.3,61.6v5.1h1.2c0.6,0,1.1-0.2,1.5-0.6c0.4-0.4,0.5-0.9,0.5-1.5v-0.9
				c0-0.6-0.2-1.1-0.5-1.5c-0.4-0.4-0.8-0.6-1.5-0.6H200.3z"/>
			<path class="st0" d="M206.7,61.4h-0.9v-0.9h0.9V61.4z M206.7,67.4h-0.9v-4.8h0.9V67.4z"/>
			<path class="st0" d="M211,66.1c0-0.2-0.1-0.3-0.2-0.5c-0.2-0.1-0.4-0.2-0.9-0.3c-0.6-0.1-1-0.3-1.4-0.5c-0.3-0.2-0.5-0.5-0.5-0.9
				c0-0.4,0.2-0.7,0.5-1c0.3-0.3,0.8-0.4,1.3-0.4c0.6,0,1,0.1,1.4,0.4c0.4,0.3,0.5,0.6,0.5,1l0,0h-0.9c0-0.2-0.1-0.4-0.3-0.6
				c-0.2-0.2-0.4-0.3-0.7-0.3c-0.3,0-0.6,0.1-0.7,0.2c-0.2,0.1-0.2,0.3-0.2,0.5c0,0.2,0.1,0.3,0.2,0.4c0.1,0.1,0.4,0.2,0.8,0.3
				c0.6,0.1,1.1,0.3,1.4,0.5c0.3,0.2,0.5,0.5,0.5,0.9c0,0.4-0.2,0.8-0.5,1c-0.4,0.3-0.8,0.4-1.4,0.4c-0.6,0-1.1-0.2-1.5-0.5
				s-0.5-0.7-0.5-1.1l0,0h0.9c0,0.3,0.1,0.5,0.4,0.7c0.2,0.1,0.5,0.2,0.8,0.2c0.3,0,0.6-0.1,0.8-0.2C210.9,66.5,211,66.3,211,66.1z"
				/>
			<path class="st0" d="M215.1,67.5c-0.7,0-1.3-0.2-1.7-0.7c-0.4-0.4-0.6-1-0.6-1.7v-0.2c0-0.7,0.2-1.3,0.6-1.7
				c0.4-0.4,0.9-0.7,1.5-0.7c0.7,0,1.2,0.2,1.5,0.6c0.3,0.4,0.5,0.9,0.5,1.6v0.5h-3.2l0,0c0,0.5,0.1,0.9,0.3,1.2
				c0.2,0.3,0.6,0.4,1,0.4c0.3,0,0.6,0,0.8-0.1c0.2-0.1,0.4-0.2,0.6-0.3l0.4,0.6c-0.2,0.2-0.4,0.3-0.7,0.4
				C215.8,67.4,215.5,67.5,215.1,67.5z M214.9,63.2c-0.3,0-0.6,0.1-0.8,0.4c-0.2,0.2-0.3,0.5-0.4,0.9l0,0h2.3v-0.1
				c0-0.3-0.1-0.6-0.3-0.9C215.6,63.3,215.3,63.2,214.9,63.2z"/>
			<path class="st0" d="M221,67.4c0-0.1-0.1-0.3-0.1-0.4c0-0.1,0-0.2,0-0.3c-0.2,0.2-0.4,0.4-0.7,0.6c-0.3,0.2-0.6,0.2-0.9,0.2
				c-0.5,0-0.9-0.1-1.2-0.4c-0.3-0.3-0.4-0.6-0.4-1.1c0-0.5,0.2-0.8,0.6-1.1c0.4-0.3,0.9-0.4,1.6-0.4h1v-0.5c0-0.3-0.1-0.5-0.3-0.7
				c-0.2-0.2-0.4-0.2-0.8-0.2c-0.3,0-0.5,0.1-0.7,0.2c-0.2,0.1-0.3,0.3-0.3,0.5l-0.9,0l0,0c0-0.3,0.1-0.7,0.5-1
				c0.4-0.3,0.8-0.4,1.4-0.4c0.6,0,1,0.1,1.4,0.4c0.3,0.3,0.5,0.7,0.5,1.2v2.3c0,0.2,0,0.3,0,0.5c0,0.2,0.1,0.3,0.1,0.5H221z
				 M219.5,66.7c0.3,0,0.6-0.1,0.9-0.2c0.3-0.2,0.4-0.3,0.5-0.6v-0.8h-1c-0.4,0-0.7,0.1-0.9,0.3c-0.2,0.2-0.3,0.4-0.3,0.6
				c0,0.2,0.1,0.4,0.2,0.5C219,66.7,219.2,66.7,219.5,66.7z"/>
			<path class="st0" d="M226.1,66.1c0-0.2-0.1-0.3-0.2-0.5c-0.2-0.1-0.4-0.2-0.9-0.3c-0.6-0.1-1-0.3-1.4-0.5
				c-0.3-0.2-0.5-0.5-0.5-0.9c0-0.4,0.2-0.7,0.5-1c0.3-0.3,0.8-0.4,1.3-0.4c0.6,0,1,0.1,1.4,0.4c0.4,0.3,0.5,0.6,0.5,1l0,0H226
				c0-0.2-0.1-0.4-0.3-0.6c-0.2-0.2-0.4-0.3-0.7-0.3c-0.3,0-0.6,0.1-0.7,0.2c-0.2,0.1-0.2,0.3-0.2,0.5c0,0.2,0.1,0.3,0.2,0.4
				c0.1,0.1,0.4,0.2,0.8,0.3c0.6,0.1,1.1,0.3,1.4,0.5c0.3,0.2,0.5,0.5,0.5,0.9c0,0.4-0.2,0.8-0.5,1c-0.4,0.3-0.8,0.4-1.4,0.4
				c-0.6,0-1.1-0.2-1.5-0.5s-0.5-0.7-0.5-1.1l0,0h0.9c0,0.3,0.1,0.5,0.4,0.7c0.2,0.1,0.5,0.2,0.8,0.2c0.3,0,0.6-0.1,0.8-0.2
				C226,66.5,226.1,66.3,226.1,66.1z"/>
			<path class="st0" d="M230.2,67.5c-0.7,0-1.3-0.2-1.7-0.7c-0.4-0.4-0.6-1-0.6-1.7v-0.2c0-0.7,0.2-1.3,0.6-1.7
				c0.4-0.4,0.9-0.7,1.5-0.7c0.7,0,1.2,0.2,1.5,0.6c0.3,0.4,0.5,0.9,0.5,1.6v0.5h-3.2l0,0c0,0.5,0.1,0.9,0.3,1.2
				c0.2,0.3,0.6,0.4,1,0.4c0.3,0,0.6,0,0.8-0.1c0.2-0.1,0.4-0.2,0.6-0.3l0.4,0.6c-0.2,0.2-0.4,0.3-0.7,0.4
				C230.9,67.4,230.6,67.5,230.2,67.5z M230,63.2c-0.3,0-0.6,0.1-0.8,0.4c-0.2,0.2-0.3,0.5-0.4,0.9l0,0h2.3v-0.1
				c0-0.3-0.1-0.6-0.3-0.9C230.7,63.3,230.4,63.2,230,63.2z"/>
			<path class="st0" d="M236,66.1c0-0.2-0.1-0.3-0.2-0.5c-0.2-0.1-0.4-0.2-0.9-0.3c-0.6-0.1-1-0.3-1.4-0.5c-0.3-0.2-0.5-0.5-0.5-0.9
				c0-0.4,0.2-0.7,0.5-1c0.3-0.3,0.8-0.4,1.3-0.4c0.6,0,1,0.1,1.4,0.4c0.4,0.3,0.5,0.6,0.5,1l0,0h-0.9c0-0.2-0.1-0.4-0.3-0.6
				c-0.2-0.2-0.4-0.3-0.7-0.3c-0.3,0-0.6,0.1-0.7,0.2c-0.2,0.1-0.2,0.3-0.2,0.5c0,0.2,0.1,0.3,0.2,0.4c0.1,0.1,0.4,0.2,0.8,0.3
				c0.6,0.1,1.1,0.3,1.4,0.5c0.3,0.2,0.5,0.5,0.5,0.9c0,0.4-0.2,0.8-0.5,1c-0.4,0.3-0.8,0.4-1.4,0.4c-0.6,0-1.1-0.2-1.5-0.5
				s-0.5-0.7-0.5-1.1l0,0h0.9c0,0.3,0.1,0.5,0.4,0.7c0.2,0.1,0.5,0.2,0.8,0.2c0.3,0,0.6-0.1,0.8-0.2C235.9,66.5,236,66.3,236,66.1z"
				/>
		</g>
	</g>
	<g>
		<g>
			<polygon class="st1" points="33.3,2.6 33.3,6.2 33.3,28.9 33.3,32.4 40.9,32.4 40.9,28.9 40.9,6.2 40.9,2.6 			"/>
			<path class="st1" d="M107.4,17.6c0,4.8-1.3,8.6-3.9,11.4c-2.6,2.8-6.3,4.1-10.9,4.1c-4.7,0-8.3-1.4-11-4.1
				c-2.6-2.8-3.9-6.5-3.9-11.4c0-4.9,1.3-8.8,3.9-11.5c2.6-2.7,6.3-4.1,11-4.1c4.7,0,8.4,1.4,11,4.1
				C106.2,8.8,107.4,12.6,107.4,17.6 M100.2,17.6c0-3.1-0.7-5.6-2-7.4c-1.3-1.8-3.2-2.7-5.6-2.7c-2.4,0-4.3,0.9-5.7,2.7
				c-1.3,1.8-2,4.3-2,7.4c0,3.1,0.7,5.6,2,7.4c1.3,1.8,3.2,2.7,5.7,2.7c2.4,0,4.3-0.9,5.6-2.7C99.5,23.1,100.2,20.7,100.2,17.6"/>
			<polygon class="st1" points="130.9,2.7 138.5,2.7 128.4,32.4 119.5,32.4 109.3,2.7 117,2.7 123.9,24.1 			"/>
			<path class="st1" d="M6,32v-5.9c3.4,1.1,6.3,1.6,8.9,1.6c3.6,0,5.4-0.9,5.4-2.8c0-0.7-0.3-1.3-0.8-1.8c-0.5-0.5-1.9-1.2-4.1-2.1
				c-3.9-1.6-6.5-3-7.7-4.1c-1.5-1.5-2.3-3.4-2.3-5.7c0-3,1.1-5.2,3.4-6.8C11,2.8,13.9,2,17.5,2c2,0,5.2,0.3,8.8,1.1v5.3
				c-2.9-0.7-5.6-1.2-8-1.2c-3.4,0-5,0.9-5,2.8c0,0.7,0.3,1.3,1,1.7c0.6,0.4,2.1,1.1,4.6,2.2c3.6,1.6,6.1,3,7.3,4.2
				c1.4,1.4,2.2,3.3,2.2,5.5c0,3.2-1.4,5.7-4.2,7.4c-2.3,1.4-5.2,2.1-8.9,2.1C12.2,33,9.1,32.7,6,32L6,32z"/>
			<polygon class="st1" points="46.6,32.4 46.6,2.6 56.1,2.6 66.7,22.6 66.7,2.6 72.6,2.6 72.6,32.4 63.7,32.4 52.5,12.2 52.5,32.4 
							"/>
			<polygon class="st1" points="143.6,32.4 136,32.4 146.1,2.7 155,2.7 165.1,32.4 157.5,32.4 150.6,11 			"/>
			<path class="st1" d="M191.1,26.6c-2.3,0.7-5.8,1.1-7.1,1.1c-3.1,0-5.6-0.9-7.5-2.8c-1.9-1.8-2.8-4.3-2.8-7.3c0-3,0.9-5.5,2.7-7.4
				c1.8-1.9,4.2-2.8,7.2-2.8c1.3,0,4.1,0.2,7.4,1.3V3.3c-0.8-0.3-1.8-0.5-2.9-0.8c-1.5-0.3-3.1-0.5-4.9-0.5c-5.2,0-9.3,1.4-12.3,4.2
				c-3.1,2.8-4.6,6.7-4.6,11.5c0,4.8,1.5,8.6,4.5,11.3c3,2.7,7.2,4.1,12.4,4.1c1.6,0,3.1-0.1,4.5-0.4c1.2-0.2,2.2-0.4,3.2-0.7V26.6z
				"/>
		</g>
		<g>
			<polygon points="215,12.9 215,9 208.8,9 208.8,6.2 214,5.9 214,2 199,2.8 199,6.7 204.3,6.4 204.3,9 198.1,9 198.1,12.9 
				204.3,12.9 204.3,33.1 208.8,33.1 208.8,12.9 			"/>
			<rect x="199.2" y="14.7" width="3.2" height="17.1"/>
			<rect x="210.7" y="14.7" width="3.2" height="17.1"/>
			<polygon points="233.6,20.1 230.8,20.4 230.8,2 226.5,2 226.5,20.9 215,22.2 215,26.1 226.5,24.8 226.5,33.1 230.8,33.1 
				230.8,24.3 233.6,24 			"/>
			<polygon points="225.3,8.4 216.5,5 216.5,8.9 225.3,12.3 			"/>
			<polygon points="225.3,15.3 216.5,12 216.5,15.9 225.3,19.2 			"/>
		</g>
		<g>
			<rect x="237.4" y="14.7" width="34.2" height="4.5"/>
			<g>
				<polygon points="240.8,33.1 245.7,33.1 252.1,20.7 247.2,20.7 				"/>
				<polygon points="256.9,20.7 263.3,33.1 268.2,33.1 261.8,20.7 				"/>
			</g>
			<g>
				<polygon points="251.8,13.1 243.1,2 238,2 246.7,13.1 				"/>
				<polygon class="st1" points="270.2,2 265.2,2 259,9.9 252.9,2 247.8,2 256.5,13.2 261.5,13.2 261.6,13.2 261.5,13.1 				"/>
			</g>
		</g>
	</g>
</g>
</svg>
